<svg xmlns="http://www.w3.org/2000/svg" viewBox="0 0 512 512">
  <defs>
    <linearGradient id="g" x1="0" y1="0" x2="1" y2="1">
      <stop offset="0" stop-color="#7aa2ff"/>
      <stop offset="1" stop-color="#9cf2c7"/>
    </linearGradient>
  </defs>
  <rect width="512" height="512" rx="112" fill="url(#g)"/>
  <g fill="none" stroke="#07101f" stroke-width="24" stroke-linecap="round" stroke-linejoin="round">
    <path d="M150 176h176v104a88 88 0 0 1-88 88h0a88 88 0 0 1-88-88z"/>
    <path d="M326 200h34a44 44 0 0 1 0 88h-34"/>
    <path d="M196 128c0 18-16 18-16 36m56-36c0 18-16 18-16 36m56-36c0 18-16 18-16 36" opacity="0.8"/>
  </g>
</svg>
