<svg xmlns="http://www.w3.org/2000/svg" viewBox="0 0 512 512" width="512" height="512">

<defs>
  <linearGradient id="tile" x1="0" y1="0" x2="1" y2="1">
    <stop offset="0" stop-color="#8a6bb2"/><stop offset="0.55" stop-color="#6b4e8c"/><stop offset="1" stop-color="#4a3167"/>
  </linearGradient>
  <radialGradient id="glow" cx="0.3" cy="0.14" r="0.9">
    <stop offset="0" stop-color="#ffffff" stop-opacity="0.32"/><stop offset="0.5" stop-color="#ffffff" stop-opacity="0.05"/><stop offset="1" stop-color="#000000" stop-opacity="0.20"/>
  </radialGradient>
  <linearGradient id="mug" x1="0" y1="0" x2="1" y2="0">
    <stop offset="0" stop-color="#cbb8e3"/><stop offset="0.14" stop-color="#fbf8ff"/><stop offset="0.42" stop-color="#f1e9fa"/><stop offset="0.8" stop-color="#ddcfee"/><stop offset="1" stop-color="#bda6da"/>
  </linearGradient>
  <linearGradient id="head" x1="0.1" y1="0" x2="0.7" y2="1">
    <stop offset="0" stop-color="#ffffff"/><stop offset="1" stop-color="#d9cbec"/>
  </linearGradient>
  <linearGradient id="inner" x1="0" y1="0" x2="0" y2="1">
    <stop offset="0" stop-color="#c3aede"/><stop offset="1" stop-color="#9f83c6"/>
  </linearGradient>
  <linearGradient id="interior" x1="0" y1="0" x2="0" y2="1">
    <stop offset="0" stop-color="#5c4383"/><stop offset="1" stop-color="#3c2a5b"/>
  </linearGradient>
  <filter id="shadow" x="-40%" y="-40%" width="180%" height="180%">
    <feDropShadow dx="0" dy="9" stdDeviation="11" flood-color="#25143d" flood-opacity="0.42"/>
  </filter>
  <filter id="soft" x="-60%" y="-60%" width="220%" height="220%"><feGaussianBlur stdDeviation="9"/></filter>
  <linearGradient id="cream" x1="0" y1="0" x2="1" y2="1">
    <stop offset="0" stop-color="#fdf9f2"/><stop offset="1" stop-color="#ece0cf"/>
  </linearGradient>
  <linearGradient id="creamSoft" x1="0" y1="0" x2="1" y2="1">
    <stop offset="0" stop-color="#fdf9f2"/><stop offset="1" stop-color="#e3d4bd"/>
  </linearGradient>
</defs>
<rect width="512" height="512" rx="112" fill="url(#cream)"/>
<g transform="translate(-38 0)">
  <ellipse cx="256" cy="420" rx="100" ry="18" fill="#2a1a42" opacity="0.30" filter="url(#soft)"/>
  <g filter="url(#shadow)"><ellipse cx="256" cy="248" rx="88" ry="19" fill="#efe6f8" stroke="#4a3167" stroke-width="12"/>
  <path d="M206,296 C 196,244 192,192 200,158 C 204,138 218,136 226,158 C 236,192 246,246 254,296 Z" fill="#ffffff" stroke="#4a3167" stroke-width="12" stroke-linejoin="round"/>
  <path d="M306,296 C 316,244 320,192 312,158 C 308,138 294,136 286,158 C 276,192 266,246 258,296 Z" fill="#ffffff" stroke="#4a3167" stroke-width="12" stroke-linejoin="round"/>
  <path d="M219,284 C 211,240 208,196 214,166" fill="none" stroke="#a489ca" stroke-width="7" stroke-linecap="round"/>
  <path d="M293,284 C 301,240 304,196 298,166" fill="none" stroke="#a489ca" stroke-width="7" stroke-linecap="round"/><path d="M168,248 A88,19 0 0 0 344,248 L344,388 C344,408 333,420 322,420 L190,420 C179,420 168,408 168,388 Z" fill="#ffffff" stroke="#4a3167" stroke-width="12" stroke-linejoin="round"/>
       <path d="M346,286 C 394,286 402,300 402,325 C 402,350 394,364 346,364" fill="none" stroke="#4a3167" stroke-width="42" stroke-linecap="round"/>
       <path d="M346,286 C 394,286 402,300 402,325 C 402,350 394,364 346,364" fill="none" stroke="#ffffff" stroke-width="19" stroke-linecap="round"/></g>
</g>
</svg>